<?xml version="1.0" standalone="no"?>
<!DOCTYPE svg PUBLIC "-//W3C//DTD SVG 20010904//EN"
 "http://www.w3.org/TR/2001/REC-SVG-20010904/DTD/svg10.dtd">
<svg version="1.0" xmlns="http://www.w3.org/2000/svg"
 width="1770.000000pt" height="1740.000000pt" viewBox="0 0 1770.000000 1740.000000"
 preserveAspectRatio="xMidYMid meet">

<g transform="translate(0.000000,1740.000000) scale(0.100000,-0.100000)"
fill="#fff" stroke="none">
<path d="M9912 17376 c-129 -33 -274 -139 -341 -250 -143 -239 -113 -523 78
-716 61 -62 171 -139 392 -275 145 -89 209 -182 195 -280 -9 -60 -38 -99 -91
-125 -131 -63 -369 -16 -527 104 l-46 36 -106 -147 c-122 -169 -121 -151 -4
-229 158 -105 334 -158 528 -158 193 -1 326 46 440 153 190 178 228 456 91
668 -83 129 -194 227 -434 386 -149 99 -183 130 -219 200 -56 110 9 245 139
288 90 29 236 -5 356 -85 33 -22 62 -35 66 -30 26 28 191 263 191 272 0 27
-227 148 -335 178 -80 22 -302 28 -373 10z"/>
<path d="M8193 17358 l-343 -11 0 -56 c0 -31 11 -429 25 -886 14 -456 25 -869
25 -917 l0 -88 178 0 c97 0 183 4 191 9 11 7 11 65 2 356 -6 192 -10 349 -8
351 1 1 110 7 242 13 154 6 260 15 295 25 202 56 354 212 406 416 23 86 22
263 0 350 -52 206 -187 355 -378 415 -104 33 -191 36 -635 23z m522 -377 c73
-34 110 -95 121 -199 9 -84 -10 -161 -51 -210 -56 -65 -91 -74 -320 -81 -110
-4 -203 -4 -208 -1 -4 3 -10 117 -14 252 l-6 247 49 4 c27 2 126 4 219 5 146
1 176 -1 210 -17z"/>
<path d="M6912 17260 c-5 -14 -105 -288 -222 -610 -117 -322 -215 -590 -219
-596 -3 -7 -197 202 -444 478 -242 269 -441 487 -443 485 -7 -7 -57 -2058 -50
-2064 5 -6 363 61 371 69 3 3 11 249 19 547 8 298 16 544 18 546 2 2 147 -161
323 -362 176 -200 323 -366 326 -369 3 -2 80 206 169 462 110 313 166 461 172
451 4 -8 102 -234 218 -503 115 -268 211 -489 213 -490 7 -7 377 69 377 77 0
8 -794 1860 -810 1889 -7 12 -10 10 -18 -10z"/>
<path d="M3786 16399 c-6 -22 -97 -2211 -92 -2217 4 -3 343 130 364 143 1 1 6
86 11 189 4 102 10 188 12 190 2 1 161 67 352 145 l349 143 34 -28 c18 -16 81
-73 139 -128 l105 -99 183 75 c100 41 180 78 178 84 -3 6 -1451 1354 -1608
1497 -18 16 -23 17 -27 6z m566 -1002 c92 -87 168 -161 169 -165 2 -8 -422
-185 -428 -179 -2 2 1 105 7 228 5 123 10 251 10 284 l0 59 38 -35 c20 -19
112 -106 204 -192z"/>
<path d="M2377 15629 c-149 -22 -318 -95 -455 -198 -184 -139 -315 -352 -368
-597 -22 -104 -22 -302 1 -408 101 -475 492 -817 966 -843 362 -20 708 160
898 468 50 82 117 236 107 247 -3 2 -83 22 -178 44 -123 27 -174 35 -177 27
-22 -67 -91 -178 -144 -232 -124 -125 -273 -190 -442 -190 -121 0 -199 18
-315 75 -165 81 -302 254 -350 444 -76 296 65 612 330 741 125 61 222 77 364
63 l49 -5 40 173 c22 95 38 175 36 177 -3 2 -34 9 -69 14 -75 12 -209 12 -293
0z"/>
<path d="M13345 15284 c-27 -2 -122 -8 -210 -14 -323 -22 -576 -56 -825 -111
-902 -200 -2502 -700 -3305 -1034 -190 -79 -396 -179 -482 -234 -58 -37 -63
-43 -63 -77 0 -58 37 -223 95 -423 98 -337 297 -900 381 -1078 79 -166 267
-368 694 -743 391 -343 655 -616 930 -960 913 -1144 1530 -2615 1764 -4205 43
-290 49 -410 43 -795 -13 -794 -121 -1709 -272 -2298 -43 -164 -110 -357 -138
-396 -12 -17 -16 -14 -36 30 -61 129 -69 369 -26 764 14 129 35 325 47 435 16
149 22 264 22 450 1 260 -7 340 -46 490 -96 365 -333 572 -722 630 -174 25
-164 29 -239 -72 -224 -303 -370 -609 -437 -918 -42 -193 -51 -301 -60 -700
-8 -345 -16 -472 -36 -564 -13 -59 -56 -181 -64 -181 -15 0 -117 221 -160 345
-81 238 -116 495 -107 785 12 347 72 679 226 1250 243 897 294 1160 295 1536
l1 211 -58 76 c-135 176 -292 284 -492 339 -67 18 -107 21 -245 22 -146 0
-179 -3 -285 -28 -227 -53 -254 -67 -925 -459 -344 -201 -626 -364 -628 -362
-20 20 144 357 232 480 148 204 307 351 700 645 138 103 302 232 365 286 350
301 532 643 591 1109 17 131 14 400 -5 525 -57 374 -219 742 -488 1103 -298
401 -814 872 -1337 1221 -680 454 -1672 542 -3040 270 -626 -125 -1329 -324
-2250 -639 -478 -163 -1647 -584 -1690 -609 -25 -14 -67 -48 -95 -76 -50 -51
-50 -51 -48 -113 6 -175 153 -697 455 -1607 263 -796 456 -1349 1298 -3730
275 -778 451 -1286 533 -1540 32 -102 268 -790 524 -1530 256 -740 508 -1471
559 -1624 178 -525 326 -905 401 -1029 27 -45 40 -57 56 -55 16 2 28 -8 46
-35 19 -29 30 -37 46 -33 11 3 674 239 1474 524 1291 461 1456 522 1464 543
13 34 0 231 -24 379 -57 343 -178 720 -511 1590 -258 673 -365 983 -437 1260
-40 156 -76 338 -67 347 2 2 48 -9 103 -26 54 -16 109 -32 123 -36 16 -3 47
-34 85 -84 33 -43 454 -575 935 -1182 480 -607 893 -1131 916 -1164 23 -33 71
-109 107 -170 86 -146 132 -196 217 -239 200 -100 399 -86 860 59 594 186
1387 524 1677 714 l88 58 120 6 c143 8 255 25 470 73 435 97 988 279 2285 754
168 61 392 141 498 177 144 49 192 70 192 82 0 45 -32 278 -50 366 -74 359
-206 768 -502 1555 -256 681 -362 981 -443 1255 -46 157 -99 365 -93 370 6 5
290 130 613 270 859 372 1255 585 1627 875 108 84 386 361 472 470 374 474
592 1044 647 1686 15 186 7 664 -15 839 -88 700 -313 1395 -666 2054 -258 482
-483 794 -742 1030 -507 460 -1185 729 -2058 816 -145 15 -738 28 -855 19z
m-210 -2834 c301 -64 534 -190 751 -405 217 -216 349 -455 416 -756 19 -88 23
-131 22 -274 -1 -151 -4 -181 -27 -270 -86 -322 -292 -542 -602 -643 -98 -33
-224 -56 -269 -50 -27 3 -30 8 -63 123 -33 114 -78 249 -330 990 -198 580
-289 937 -311 1219 l-8 99 161 -6 c105 -4 194 -13 260 -27z m-4811 -1504 c388
-116 632 -337 717 -651 18 -65 22 -109 23 -235 1 -176 -13 -265 -71 -453 -32
-104 -39 -118 -62 -125 -14 -4 -123 -7 -241 -7 -236 0 -318 11 -476 65 -384
130 -626 445 -651 845 -18 298 116 510 367 580 87 24 281 14 394 -19z m-2895
-1072 c391 -54 693 -194 931 -433 210 -211 339 -465 391 -772 29 -171 23 -432
-14 -589 -96 -405 -303 -683 -577 -776 -44 -15 -85 -19 -210 -19 l-154 0 -72
176 c-206 505 -515 1431 -645 1934 -79 303 -106 485 -76 499 20 9 314 -4 426
-20z"/>
<path d="M12 14178 c3 -7 143 -488 313 -1068 169 -580 310 -1058 314 -1063 7
-7 292 234 299 253 2 4 -20 85 -48 180 -28 94 -50 175 -48 179 4 9 566 501
573 501 3 0 80 -34 171 -75 92 -41 172 -72 178 -68 6 4 75 63 154 132 l143
124 -28 12 c-15 7 -462 207 -993 445 -1139 511 -1034 465 -1028 448z m853
-767 c121 -54 220 -104 220 -109 0 -10 -331 -302 -343 -302 -5 0 -127 397
-159 521 -6 23 -29 32 282 -110z"/>
</g>
</svg>
